<?xml version="1.0" encoding="UTF-8"?>
<!DOCTYPE svg PUBLIC "-//W3C//DTD SVG 1.1//EN" "http://www.w3.org/Graphics/SVG/1.1/DTD/svg11.dtd">
<svg xmlns="http://www.w3.org/2000/svg" version="1.1" width="500px" height="500px" style="shape-rendering:geometricPrecision; text-rendering:geometricPrecision; image-rendering:optimizeQuality; fill-rule:evenodd; clip-rule:evenodd" xmlns:xlink="http://www.w3.org/1999/xlink">
<g><path style="opacity:1" fill="#0c0b0a" d="M 336.5,278.5 C 331.86,280.82 327.193,283.153 322.5,285.5C 320.5,285.833 318.5,286.167 316.5,286.5C 314.708,286.634 313.042,286.301 311.5,285.5C 311.906,283.891 311.906,282.557 311.5,281.5C 307.086,284.374 302.419,286.707 297.5,288.5C 293.952,289.13 290.619,290.13 287.5,291.5C 283.648,292.187 281.981,294.521 282.5,298.5C 279.167,298.5 275.833,298.5 272.5,298.5C 271.5,298.5 270.5,298.5 269.5,298.5C 268.833,298.5 268.167,298.5 267.5,298.5C 266.833,298.5 266.167,298.5 265.5,298.5C 261.167,298.5 256.833,298.5 252.5,298.5C 249.167,298.5 245.833,298.5 242.5,298.5C 238.167,298.5 233.833,298.5 229.5,298.5C 228.833,298.5 228.167,298.5 227.5,298.5C 226.833,298.5 226.167,298.5 225.5,298.5C 224.167,298.5 222.833,298.5 221.5,298.5C 219.473,298.662 217.473,298.495 215.5,298C 213.849,293.847 210.849,291.347 206.5,290.5C 203.713,289.523 200.713,289.19 197.5,289.5C 191.917,287.708 186.583,285.374 181.5,282.5C 177.63,275.869 175.963,276.202 176.5,283.5C 175.221,284.968 173.554,285.635 171.5,285.5C 167.739,283.462 163.739,281.796 159.5,280.5C 152.115,276.618 145.115,272.118 138.5,267C 118.141,263.661 98.4747,257.994 79.5,250C 68.8551,243.825 67.8551,236.492 76.5,228C 86.42,221.526 97.0867,216.693 108.5,213.5C 108.286,211.856 108.62,210.356 109.5,209C 131.013,201.455 153.013,195.788 175.5,192C 176.737,161.78 191.07,140.446 218.5,128C 254.426,117.201 285.259,125.368 311,152.5C 319.577,163.896 324.411,176.729 325.5,191C 347.252,195.105 368.586,200.771 389.5,208C 391.658,209.312 391.991,210.978 390.5,213C 399.833,216.667 409.167,220.333 418.5,224C 430.11,231.583 430.443,239.583 419.5,248C 395.999,259.043 371.332,266.043 345.5,269C 342.368,272.145 339.368,275.312 336.5,278.5 Z M 260.5,128.5 C 271.071,147.963 269.238,166.296 255,183.5C 250.756,188.415 245.923,192.581 240.5,196C 234.956,197.404 229.29,197.904 223.5,197.5C 217.816,197.257 212.149,196.757 206.5,196C 198.819,190.172 194.819,182.338 194.5,172.5C 194.665,169.15 194.498,165.817 194,162.5C 193.487,163.527 192.987,164.527 192.5,165.5C 190.98,170.693 190.147,176.026 190,181.5C 186.377,162.905 192.544,148.405 208.5,138C 224.692,128.69 242.025,125.523 260.5,128.5 Z M 224.5,199.5 C 227.305,200.319 230.305,200.819 233.5,201C 231.167,202.043 228.834,202.876 226.5,203.5C 221.495,203.512 218.162,205.845 216.5,210.5C 206.358,216.325 195.358,219.992 183.5,221.5C 175.156,220.582 166.823,219.582 158.5,218.5C 148.108,216.823 137.775,214.823 127.5,212.5C 144.429,205.635 161.762,199.968 179.5,195.5C 194.384,197.955 209.384,199.288 224.5,199.5 Z M 151.5,220.5 C 169.268,223.116 187.268,224.782 205.5,225.5C 216.802,226.41 228.136,226.743 239.5,226.5C 215.302,238.298 189.636,244.298 162.5,244.5C 157.167,244.167 151.833,243.833 146.5,243.5C 123.058,241.32 99.7245,238.32 76.5,234.5C 77.7481,232.541 79.4148,231.041 81.5,230C 91.2829,224.273 101.616,219.94 112.5,217C 125.511,217.75 138.511,218.917 151.5,220.5 Z M 128.5,244.5 C 149.005,245.973 169.671,247.306 190.5,248.5C 200.806,249.371 211.14,249.704 221.5,249.5C 203.78,257.599 185.113,262.599 165.5,264.5C 135.425,263.307 107.425,255.14 81.5,240C 97.0424,242.233 112.709,243.733 128.5,244.5 Z M 168.5,267.5 C 166.388,269.771 163.721,271.104 160.5,271.5C 157.033,269.933 153.7,268.099 150.5,266C 156.497,266.165 162.497,266.665 168.5,267.5 Z M 227.5,270.5 C 239.833,271.167 252.167,271.833 264.5,272.5C 259.13,272.392 253.797,272.725 248.5,273.5C 244.154,273.334 239.821,273.501 235.5,274C 243.095,275.356 250.762,275.856 258.5,275.5C 256.412,277.02 254.078,278.02 251.5,278.5C 247.5,278.5 243.5,278.5 239.5,278.5C 224.941,278.539 224.941,279.205 239.5,280.5C 243.167,280.5 246.833,280.5 250.5,280.5C 248.167,281.833 245.833,283.167 243.5,284.5C 238.156,284.334 232.823,284.501 227.5,285C 227.167,285.333 226.833,285.667 226.5,286C 229.482,286.498 232.482,286.665 235.5,286.5C 229.413,288.789 223.08,290.456 216.5,291.5C 214.36,288.023 211.36,285.689 207.5,284.5C 211.995,284.265 214.995,282.098 216.5,278C 214.44,272.303 210.44,270.303 204.5,272C 198.222,275.37 197.888,279.203 203.5,283.5C 193.637,282.231 185.971,277.398 180.5,269C 196.123,269.96 211.789,270.46 227.5,270.5 Z M 288.5,273.5 C 293.776,273.403 295.776,275.736 294.5,280.5C 289.993,283.274 286.326,282.441 283.5,278C 284.445,275.554 286.111,274.054 288.5,273.5 Z"/></g>
<g><path style="opacity:1" fill="#fa9101" d="M 260.5,128.5 C 276.003,130.324 287.503,137.99 295,151.5C 300.064,167.64 295.564,180.473 281.5,190C 268.928,197.069 255.428,199.902 241,198.5C 234.99,198.499 229.157,198.166 223.5,197.5C 229.29,197.904 234.956,197.404 240.5,196C 245.923,192.581 250.756,188.415 255,183.5C 269.238,166.296 271.071,147.963 260.5,128.5 Z"/></g>
<g><path style="opacity:1" fill="#676767" d="M 194.5,172.5 C 193.833,170.167 193.167,167.833 192.5,165.5C 192.987,164.527 193.487,163.527 194,162.5C 194.498,165.817 194.665,169.15 194.5,172.5 Z"/></g>
<g><path style="opacity:1" fill="#6f6f6f" d="M 238.5,224.5 C 247.407,221.89 256.074,218.39 264.5,214C 265.926,211.955 266.926,209.788 267.5,207.5C 267.377,216.044 271.71,220.377 280.5,220.5C 288.906,220.591 293.073,216.591 293,208.5C 290.633,203.733 286.8,201.066 281.5,200.5C 279.393,199.532 277.059,199.198 274.5,199.5C 289.721,198.142 305.054,196.476 320.5,194.5C 320.496,203.676 316.496,210.509 308.5,215C 300.042,219.597 291.042,222.597 281.5,224C 267.171,224.5 252.837,224.667 238.5,224.5 Z"/></g>
<g><path style="opacity:1" fill="#9d9d9d" d="M 224.5,199.5 C 241.156,200.39 257.823,200.39 274.5,199.5C 277.059,199.198 279.393,199.532 281.5,200.5C 275.512,200.147 270.845,202.481 267.5,207.5C 266.926,209.788 265.926,211.955 264.5,214C 256.074,218.39 247.407,221.89 238.5,224.5C 228.833,224.5 219.167,224.5 209.5,224.5C 200.789,223.918 192.122,222.918 183.5,221.5C 195.358,219.992 206.358,216.325 216.5,210.5C 216.761,218.094 220.761,222.094 228.5,222.5C 234.508,222.89 239.008,220.557 242,215.5C 242.811,209.623 240.311,205.79 234.5,204C 231.854,203.503 229.187,203.336 226.5,203.5C 228.834,202.876 231.167,202.043 233.5,201C 230.305,200.819 227.305,200.319 224.5,199.5 Z"/></g>
<g><path style="opacity:1" fill="#111111" d="M 226.5,203.5 C 229.187,203.336 231.854,203.503 234.5,204C 240.311,205.79 242.811,209.623 242,215.5C 239.008,220.557 234.508,222.89 228.5,222.5C 220.761,222.094 216.761,218.094 216.5,210.5C 218.162,205.845 221.495,203.512 226.5,203.5 Z"/></g>
<g><path style="opacity:1" fill="#404040" d="M 223.5,205.5 C 228.777,204.931 233.777,205.765 238.5,208C 241.929,213.491 240.595,217.491 234.5,220C 226.614,222.483 220.947,220.149 217.5,213C 218.622,209.72 220.622,207.22 223.5,205.5 Z"/></g>
<g><path style="opacity:1" fill="#202020" d="M 174.5,199.5 C 180.903,198.529 186.57,200.029 191.5,204C 195.111,211.124 193.111,216.124 185.5,219C 176.118,221.115 169.785,217.782 166.5,209C 167.578,204.427 170.245,201.261 174.5,199.5 Z"/></g>
<g><path style="opacity:1" fill="#555555" d="M 174.5,201.5 C 179.412,201.063 184.078,201.896 188.5,204C 193.037,209.961 191.703,214.294 184.5,217C 176.976,218.785 171.643,216.285 168.5,209.5C 169.401,205.942 171.401,203.275 174.5,201.5 Z"/></g>
<g><path style="opacity:1" fill="#0f0f0f" d="M 281.5,200.5 C 286.8,201.066 290.633,203.733 293,208.5C 293.073,216.591 288.906,220.591 280.5,220.5C 271.71,220.377 267.377,216.044 267.5,207.5C 270.845,202.481 275.512,200.147 281.5,200.5 Z"/></g>
<g><path style="opacity:1" fill="#2d2d2d" d="M 275.5,202.5 C 281.852,201.598 287.018,203.598 291,208.5C 291.7,213.489 289.533,216.655 284.5,218C 279.928,218.887 275.595,218.22 271.5,216C 267.113,209.916 268.447,205.416 275.5,202.5 Z"/></g>
<g><path style="opacity:1" fill="#717171" d="M 281.5,247.5 C 264.167,247.5 246.833,247.5 229.5,247.5C 250.473,243.036 270.807,236.203 290.5,227C 288.866,226.506 287.199,226.34 285.5,226.5C 309.106,224.824 332.773,222.657 356.5,220C 333.633,234.791 308.633,243.958 281.5,247.5 Z"/></g>
<g><path style="opacity:1" fill="#252525" d="M 158.5,218.5 C 166.823,219.582 175.156,220.582 183.5,221.5C 192.122,222.918 200.789,223.918 209.5,224.5C 207.901,224.232 206.568,224.566 205.5,225.5C 187.268,224.782 169.268,223.116 151.5,220.5C 154.228,220.829 156.562,220.163 158.5,218.5 Z"/></g>
<g><path style="opacity:1" fill="#a1a1a1" d="M 239.5,226.5 C 254.833,226.5 270.167,226.5 285.5,226.5C 287.199,226.34 288.866,226.506 290.5,227C 270.807,236.203 250.473,243.036 229.5,247.5C 226.5,247.5 223.5,247.5 220.5,247.5C 212.5,247.5 204.5,247.5 196.5,247.5C 185.172,246.426 173.839,245.426 162.5,244.5C 189.636,244.298 215.302,238.298 239.5,226.5 Z"/></g>
<g><path style="opacity:1" fill="#6f6f6f" d="M 215.5,268.5 C 221.637,266.802 227.971,265.468 234.5,264.5C 235.514,265.765 237.014,266.431 239,266.5C 243.258,267.407 245.091,265.741 244.5,261.5C 245.167,261.5 245.833,261.5 246.5,261.5C 246.286,263.144 246.62,264.644 247.5,266C 250.482,266.498 253.482,266.665 256.5,266.5C 256.5,263.833 256.5,261.167 256.5,258.5C 264.725,255.872 272.725,252.872 280.5,249.5C 285.695,249.821 290.695,249.487 295.5,248.5C 321.208,247.274 346.875,245.774 372.5,244C 357.635,250.399 342.301,255.399 326.5,259C 296.335,265.352 265.835,268.852 235,269.5C 228.453,269.461 221.953,269.128 215.5,268.5 Z"/></g>
<g><path style="opacity:1" fill="#282828" d="M 146.5,243.5 C 151.833,243.833 157.167,244.167 162.5,244.5C 173.839,245.426 185.172,246.426 196.5,247.5C 194.265,247.205 192.265,247.539 190.5,248.5C 169.671,247.306 149.005,245.973 128.5,244.5C 134.69,244.823 140.69,244.49 146.5,243.5 Z"/></g>
<g><path style="opacity:1" fill="#2e2e2e" d="M 220.5,247.5 C 223.5,247.5 226.5,247.5 229.5,247.5C 246.833,247.5 264.167,247.5 281.5,247.5C 285.97,248.486 290.637,248.819 295.5,248.5C 290.695,249.487 285.695,249.821 280.5,249.5C 279.833,249.5 279.167,249.5 278.5,249.5C 259.167,248.833 239.833,248.167 220.5,247.5 Z"/></g>
<g><path style="opacity:1" fill="#101010" d="M 190.5,248.5 C 192.265,247.539 194.265,247.205 196.5,247.5C 204.5,247.5 212.5,247.5 220.5,247.5C 239.833,248.167 259.167,248.833 278.5,249.5C 259.5,249.5 240.5,249.5 221.5,249.5C 211.14,249.704 200.806,249.371 190.5,248.5 Z"/></g>
<g><path style="opacity:1" fill="#9c9c9c" d="M 221.5,249.5 C 240.5,249.5 259.5,249.5 278.5,249.5C 279.167,249.5 279.833,249.5 280.5,249.5C 272.725,252.872 264.725,255.872 256.5,258.5C 256.5,256.5 256.5,254.5 256.5,252.5C 253.167,252.5 249.833,252.5 246.5,252.5C 246.5,255.5 246.5,258.5 246.5,261.5C 245.833,261.5 245.167,261.5 244.5,261.5C 244.5,258.5 244.5,255.5 244.5,252.5C 241.167,252.5 237.833,252.5 234.5,252.5C 234.5,256.5 234.5,260.5 234.5,264.5C 227.971,265.468 221.637,266.802 215.5,268.5C 198.594,268.328 181.928,266.995 165.5,264.5C 185.113,262.599 203.78,257.599 221.5,249.5 Z"/></g>
<g><path style="opacity:1" fill="#060606" d="M 244.5,261.5 C 245.091,265.741 243.258,267.407 239,266.5C 237.014,266.431 235.514,265.765 234.5,264.5C 234.5,260.5 234.5,256.5 234.5,252.5C 237.833,252.5 241.167,252.5 244.5,252.5C 244.5,255.5 244.5,258.5 244.5,261.5 Z"/></g>
<g><path style="opacity:1" fill="#070707" d="M 256.5,258.5 C 256.5,261.167 256.5,263.833 256.5,266.5C 253.482,266.665 250.482,266.498 247.5,266C 246.62,264.644 246.286,263.144 246.5,261.5C 246.5,258.5 246.5,255.5 246.5,252.5C 249.833,252.5 253.167,252.5 256.5,252.5C 256.5,254.5 256.5,256.5 256.5,258.5 Z"/></g>
<g><path style="opacity:1" fill="#e28301" d="M 168.5,267.5 C 169.239,267.369 169.906,267.536 170.5,268C 168.787,269.378 167.453,271.045 166.5,273C 164.011,273.941 162.011,273.441 160.5,271.5C 163.721,271.104 166.388,269.771 168.5,267.5 Z"/></g>
<g><path style="opacity:1" fill="#b3742c" d="M 227.5,270.5 C 244.17,270.333 260.837,270.5 277.5,271C 273.152,271.465 268.819,271.965 264.5,272.5C 252.167,271.833 239.833,271.167 227.5,270.5 Z"/></g>
<g><path style="opacity:1" fill="#191511" d="M 207.5,284.5 C 206.432,283.566 205.099,283.232 203.5,283.5C 197.888,279.203 198.222,275.37 204.5,272C 210.44,270.303 214.44,272.303 216.5,278C 214.995,282.098 211.995,284.265 207.5,284.5 Z"/></g>
<g><path style="opacity:1" fill="#714e20" d="M 248.5,273.5 C 258.992,274.33 269.659,274.83 280.5,275C 278.564,275.813 276.564,276.313 274.5,276.5C 269.36,275.512 264.026,275.179 258.5,275.5C 250.762,275.856 243.095,275.356 235.5,274C 239.821,273.501 244.154,273.334 248.5,273.5 Z"/></g>
<g><path style="opacity:1" fill="#e2850b" d="M 258.5,275.5 C 264.026,275.179 269.36,275.512 274.5,276.5C 266.859,277.407 259.193,278.073 251.5,278.5C 254.078,278.02 256.412,277.02 258.5,275.5 Z"/></g>
<g><path style="opacity:1" fill="#fe9404" d="M 181.5,282.5 C 186.452,295.403 191.119,308.403 195.5,321.5C 189.199,308.899 182.866,296.232 176.5,283.5C 175.963,276.202 177.63,275.869 181.5,282.5 Z"/></g>
<g><path style="opacity:1" fill="#7e5e32" d="M 239.5,278.5 C 239.5,279.167 239.5,279.833 239.5,280.5C 224.941,279.205 224.941,278.539 239.5,278.5 Z"/></g>
<g><path style="opacity:1" fill="#e98701" d="M 246.5,284.5 C 245.5,284.5 244.5,284.5 243.5,284.5C 245.833,283.167 248.167,281.833 250.5,280.5C 259.515,280.273 268.515,280.106 277.5,280C 267.331,282.556 256.997,284.056 246.5,284.5 Z"/></g>
<g><path style="opacity:1" fill="#fd9404" d="M 336.5,278.5 C 325.994,300.181 314.994,321.515 303.5,342.5C 308.869,327.422 314.535,312.422 320.5,297.5C 320.154,296.304 319.654,296.304 319,297.5C 317.694,300.621 315.86,303.287 313.5,305.5C 316.5,298.833 319.5,292.167 322.5,285.5C 327.193,283.153 331.86,280.82 336.5,278.5 Z"/></g>
<g><path style="opacity:1" fill="#fe9401" d="M 159.5,280.5 C 163.739,281.796 167.739,283.462 171.5,285.5C 174.771,291.708 177.771,298.041 180.5,304.5C 178.777,302.747 177.277,300.747 176,298.5C 175.346,297.304 174.846,297.304 174.5,298.5C 180.465,313.422 186.131,328.422 191.5,343.5C 180.595,322.69 169.928,301.69 159.5,280.5 Z"/></g>
<g><path style="opacity:1" fill="#8c6632" d="M 243.5,284.5 C 244.5,284.5 245.5,284.5 246.5,284.5C 243.167,285.167 239.833,285.833 236.5,286.5C 236.167,286.5 235.833,286.5 235.5,286.5C 232.482,286.665 229.482,286.498 226.5,286C 226.833,285.667 227.167,285.333 227.5,285C 232.823,284.501 238.156,284.334 243.5,284.5 Z"/></g>
<g><path style="opacity:1" fill="#533002" d="M 270.5,286.5 C 272.628,285.371 274.961,285.204 277.5,286C 275.975,287.009 274.308,287.509 272.5,287.5C 272.158,286.662 271.492,286.328 270.5,286.5 Z"/></g>
<g><path style="opacity:1" fill="#ef8b01" d="M 235.5,286.5 C 235.833,286.5 236.167,286.5 236.5,286.5C 247.833,286.5 259.167,286.5 270.5,286.5C 271.492,286.328 272.158,286.662 272.5,287.5C 254.278,290.604 235.944,292.437 217.5,293C 216.944,292.617 216.611,292.117 216.5,291.5C 223.08,290.456 229.413,288.789 235.5,286.5 Z"/></g>
<g><path style="opacity:1" fill="#fc9507" d="M 311.5,285.5 C 313.042,286.301 314.708,286.634 316.5,286.5C 311.01,298.813 305.01,310.813 298.5,322.5C 303.031,310.242 307.364,297.909 311.5,285.5 Z"/></g>
<g><path style="opacity:1" fill="#fd9302" d="M 197.5,289.5 C 200.713,289.19 203.713,289.523 206.5,290.5C 209.231,297.028 211.565,303.694 213.5,310.5C 211.774,308.058 210.274,305.391 209,302.5C 208.833,303 208.667,303.5 208.5,304C 212.142,314.426 215.476,324.926 218.5,335.5C 210.987,320.469 203.987,305.136 197.5,289.5 Z"/></g>
<g><path style="opacity:1" fill="#fc9305" d="M 297.5,288.5 C 290.072,305.683 282.406,322.683 274.5,339.5C 277.858,327.926 281.524,316.426 285.5,305C 285.333,304.5 285.167,304 285,303.5C 284.059,305.727 282.892,307.727 281.5,309.5C 283.493,303.51 285.493,297.51 287.5,291.5C 290.619,290.13 293.952,289.13 297.5,288.5 Z"/></g>
<g><path style="opacity:1" fill="#ff9503" d="M 221.5,298.5 C 222.833,298.5 224.167,298.5 225.5,298.5C 227.706,306.451 229.706,314.451 231.5,322.5C 227.99,314.652 224.656,306.652 221.5,298.5 Z"/></g>
<g><path style="opacity:1" fill="#ff9503" d="M 227.5,298.5 C 228.167,298.5 228.833,298.5 229.5,298.5C 230.167,301.833 230.833,305.167 231.5,308.5C 229.597,305.47 228.263,302.137 227.5,298.5 Z"/></g>
<g><path style="opacity:1" fill="#ff9401" d="M 242.5,298.5 C 245.833,298.5 249.167,298.5 252.5,298.5C 250.466,321.506 248.299,344.506 246,367.5C 244.68,344.5 243.513,321.5 242.5,298.5 Z"/></g>
<g><path style="opacity:1" fill="#ff9504" d="M 265.5,298.5 C 266.167,298.5 266.833,298.5 267.5,298.5C 266.537,301.744 265.204,304.744 263.5,307.5C 263.756,304.402 264.422,301.402 265.5,298.5 Z"/></g>
<g><path style="opacity:1" fill="#ff9503" d="M 269.5,298.5 C 270.5,298.5 271.5,298.5 272.5,298.5C 270.07,306.467 267.07,314.134 263.5,321.5C 265.097,313.712 267.097,306.046 269.5,298.5 Z"/></g>
<g><path style="opacity:1" fill="#fe9707" d="M 216.5,301.5 C 217.833,302.167 217.833,302.167 216.5,301.5 Z"/></g>
<g><path style="opacity:1" fill="#fe9400" d="M 180.5,304.5 C 181.338,304.842 181.672,305.508 181.5,306.5C 180.662,306.158 180.328,305.492 180.5,304.5 Z"/></g>
<g><path style="opacity:1" fill="#ff9f1c" d="M 256.5,309.5 C 256.343,308.127 256.51,306.793 257,305.5C 257.765,307.066 257.598,308.399 256.5,309.5 Z"/></g>
<g><path style="opacity:1" fill="#fe9400" d="M 313.5,305.5 C 313.672,306.492 313.338,307.158 312.5,307.5C 312.328,306.508 312.662,305.842 313.5,305.5 Z"/></g>
<g><path style="opacity:1" fill="#ff9504" d="M 222.5,318.5 C 220.099,313.794 218.599,308.794 218,303.5C 220.213,308.304 221.713,313.304 222.5,318.5 Z"/></g>
<g><path style="opacity:1" fill="#ff9c18" d="M 181.5,306.5 C 182.338,306.842 182.672,307.508 182.5,308.5C 181.662,308.158 181.328,307.492 181.5,306.5 Z"/></g>
<g><path style="opacity:1" fill="#ff9605" d="M 263.5,307.5 C 263.737,308.791 263.404,309.791 262.5,310.5C 262.263,309.209 262.596,308.209 263.5,307.5 Z"/></g>
<g><path style="opacity:1" fill="#fe9400" d="M 312.5,307.5 C 311.833,308.167 311.833,308.167 312.5,307.5 Z"/></g>
<g><path style="opacity:1" fill="#fe9400" d="M 182.5,308.5 C 183.833,309.167 183.833,309.167 182.5,308.5 Z"/></g>
<g><path style="opacity:1" fill="#ff9608" d="M 276.5,302.5 C 277.097,302.735 277.43,303.235 277.5,304C 275.667,309.5 273.833,315 272,320.5C 272.758,314.377 274.258,308.377 276.5,302.5 Z"/></g>
<g><path style="opacity:1" fill="#ff980a" d="M 231.5,308.5 C 232.573,309.251 232.74,310.251 232,311.5C 231.517,310.552 231.351,309.552 231.5,308.5 Z"/></g>
<g><path style="opacity:1" fill="#fe9400" d="M 310.5,309.5 C 311.833,310.167 311.833,310.167 310.5,309.5 Z"/></g>
<g><path style="opacity:1" fill="#fe9c12" d="M 183.5,310.5 C 184.833,311.167 184.833,311.167 183.5,310.5 Z"/></g>
<g><path style="opacity:1" fill="#ff9505" d="M 256.5,309.5 C 256.595,314.887 256.095,320.22 255,325.5C 254.159,319.909 254.659,314.576 256.5,309.5 Z"/></g>
<g><path style="opacity:1" fill="#ff9605" d="M 281.5,309.5 C 281.672,310.492 281.338,311.158 280.5,311.5C 280.328,310.508 280.662,309.842 281.5,309.5 Z"/></g>
<g><path style="opacity:1" fill="#ff9a11" d="M 213.5,310.5 C 214.338,310.842 214.672,311.508 214.5,312.5C 213.662,312.158 213.328,311.492 213.5,310.5 Z"/></g>
<g><path style="opacity:1" fill="#ff9607" d="M 262.5,310.5 C 262.631,311.239 262.464,311.906 262,312.5C 261.308,311.563 261.475,310.897 262.5,310.5 Z"/></g>
<g><path style="opacity:1" fill="#fe9d16" d="M 309.5,311.5 C 310.833,312.167 310.833,312.167 309.5,311.5 Z"/></g>
<g><path style="opacity:1" fill="#fe9400" d="M 232.5,312.5 C 233.833,313.167 233.833,313.167 232.5,312.5 Z"/></g>
<g><path style="opacity:1" fill="#ff9607" d="M 237.5,307.5 C 239.632,313.888 240.465,320.554 240,327.5C 238.764,320.88 237.931,314.213 237.5,307.5 Z"/></g>
<g><path style="opacity:1" fill="#ff990e" d="M 280.5,311.5 C 280.631,312.239 280.464,312.906 280,313.5C 279.308,312.563 279.475,311.897 280.5,311.5 Z"/></g>
<g><path style="opacity:1" fill="#fe9e18" d="M 214.5,312.5 C 215.525,312.897 215.692,313.563 215,314.5C 214.536,313.906 214.369,313.239 214.5,312.5 Z"/></g>
<g><path style="opacity:1" fill="#fe9e17" d="M 260.5,314.5 C 261.833,315.167 261.833,315.167 260.5,314.5 Z"/></g>
<g><path style="opacity:1" fill="#fe9b10" d="M 278.5,314.5 C 279.833,315.167 279.833,315.167 278.5,314.5 Z"/></g>
<g><path style="opacity:1" fill="#fea01c" d="M 215.5,315.5 C 216.833,316.167 216.833,316.167 215.5,315.5 Z"/></g>
<g><path style="opacity:1" fill="#fea323" d="M 233.5,315.5 C 234.833,316.167 234.833,316.167 233.5,315.5 Z"/></g>
<g><path style="opacity:1" fill="#fe990c" d="M 201.5,318.5 C 202.833,319.167 202.833,319.167 201.5,318.5 Z"/></g>
<g><path style="opacity:1" fill="#ff970b" d="M 222.5,318.5 C 223.525,318.897 223.692,319.563 223,320.5C 222.536,319.906 222.369,319.239 222.5,318.5 Z"/></g>
<g><path style="opacity:1" fill="#ff9b13" d="M 291.5,321.5 C 291.369,320.761 291.536,320.094 292,319.5C 292.692,320.437 292.525,321.103 291.5,321.5 Z"/></g>
<g><path style="opacity:1" fill="#ff980d" d="M 263.5,321.5 C 263.737,322.791 263.404,323.791 262.5,324.5C 262.263,323.209 262.596,322.209 263.5,321.5 Z"/></g>
<g><path style="opacity:1" fill="#ff9401" d="M 291.5,321.5 C 291.672,322.492 291.338,323.158 290.5,323.5C 290.328,322.508 290.662,321.842 291.5,321.5 Z"/></g>
<g><path style="opacity:1" fill="#ff9e1b" d="M 195.5,321.5 C 196.338,321.842 196.672,322.508 196.5,323.5C 195.662,323.158 195.328,322.492 195.5,321.5 Z"/></g>
<g><path style="opacity:1" fill="#fe9a0f" d="M 298.5,322.5 C 298.631,323.239 298.464,323.906 298,324.5C 297.308,323.563 297.475,322.897 298.5,322.5 Z"/></g>
<g><path style="opacity:1" fill="#ff990f" d="M 231.5,322.5 C 232.573,323.251 232.74,324.251 232,325.5C 231.517,324.552 231.351,323.552 231.5,322.5 Z"/></g>
<g><path style="opacity:1" fill="#ff9e1a" d="M 196.5,323.5 C 197.525,323.897 197.692,324.563 197,325.5C 196.536,324.906 196.369,324.239 196.5,323.5 Z"/></g>
<g><path style="opacity:1" fill="#ff9607" d="M 262.5,324.5 C 262.631,325.239 262.464,325.906 262,326.5C 261.308,325.563 261.475,324.897 262.5,324.5 Z"/></g>
<g><path style="opacity:1" fill="#ff970c" d="M 290.5,323.5 C 289.257,328.25 287.257,332.584 284.5,336.5C 285.367,333.092 286.533,329.758 288,326.5C 288.377,325.058 289.21,324.058 290.5,323.5 Z"/></g>
<g><path style="opacity:1" fill="#fe9b10" d="M 296.5,325.5 C 297.833,326.167 297.833,326.167 296.5,325.5 Z"/></g>
<g><path style="opacity:1" fill="#fea11f" d="M 197.5,326.5 C 198.833,327.167 198.833,327.167 197.5,326.5 Z"/></g>
<g><path style="opacity:1" fill="#ff9608" d="M 207.5,330.5 C 205.165,327.5 203.665,324.166 203,320.5C 205.324,323.48 206.824,326.813 207.5,330.5 Z"/></g>
<g><path style="opacity:1" fill="#fe9400" d="M 232.5,326.5 C 233.833,327.167 233.833,327.167 232.5,326.5 Z"/></g>
<g><path style="opacity:1" fill="#fea11f" d="M 260.5,328.5 C 261.833,329.167 261.833,329.167 260.5,328.5 Z"/></g>
<g><path style="opacity:1" fill="#fea529" d="M 233.5,329.5 C 234.833,330.167 234.833,330.167 233.5,329.5 Z"/></g>
<g><path style="opacity:1" fill="#ff980d" d="M 207.5,330.5 C 209.175,332.179 210.008,334.179 210,336.5C 208.337,334.842 207.504,332.842 207.5,330.5 Z"/></g>
<g><path style="opacity:1" fill="#ff9606" d="M 218.5,335.5 C 219.404,336.209 219.737,337.209 219.5,338.5C 218.596,337.791 218.263,336.791 218.5,335.5 Z"/></g>
<g><path style="opacity:1" fill="#ff9b17" d="M 264.5,337.5 C 264.351,336.448 264.517,335.448 265,334.5C 265.74,335.749 265.573,336.749 264.5,337.5 Z"/></g>
<g><path style="opacity:1" fill="#ff9707" d="M 229.5,337.5 C 228.475,337.103 228.308,336.437 229,335.5C 229.464,336.094 229.631,336.761 229.5,337.5 Z"/></g>
<g><path style="opacity:1" fill="#ffa225" d="M 284.5,336.5 C 284.631,337.239 284.464,337.906 284,338.5C 283.308,337.563 283.475,336.897 284.5,336.5 Z"/></g>
<g><path style="opacity:1" fill="#ff9606" d="M 219.5,338.5 C 220.525,338.897 220.692,339.563 220,340.5C 219.536,339.906 219.369,339.239 219.5,338.5 Z"/></g>
<g><path style="opacity:1" fill="#ff9910" d="M 274.5,339.5 C 274.631,340.239 274.464,340.906 274,341.5C 273.308,340.563 273.475,339.897 274.5,339.5 Z"/></g>
<g><path style="opacity:1" fill="#fe9400" d="M 220.5,341.5 C 221.833,342.167 221.833,342.167 220.5,341.5 Z"/></g>
<g><path style="opacity:1" fill="#ff9504" d="M 229.5,337.5 C 231.575,341.474 232.575,345.808 232.5,350.5C 230.74,346.453 229.74,342.12 229.5,337.5 Z"/></g>
<g><path style="opacity:1" fill="#ff9606" d="M 264.5,337.5 C 263.813,343.249 262.647,348.916 261,354.5C 260.836,348.482 262.003,342.816 264.5,337.5 Z"/></g>
<g><path style="opacity:1" fill="#fe9400" d="M 303.5,342.5 C 303.672,343.492 303.338,344.158 302.5,344.5C 302.328,343.508 302.662,342.842 303.5,342.5 Z"/></g>
<g><path style="opacity:1" fill="#fe9400" d="M 191.5,343.5 C 192.338,343.842 192.672,344.508 192.5,345.5C 191.662,345.158 191.328,344.492 191.5,343.5 Z"/></g>
<g><path style="opacity:1" fill="#fea323" d="M 201.5,343.5 C 202.833,344.167 202.833,344.167 201.5,343.5 Z"/></g>
<g><path style="opacity:1" fill="#fea221" d="M 272.5,343.5 C 273.833,344.167 273.833,344.167 272.5,343.5 Z"/></g>
<g><path style="opacity:1" fill="#fe9f1a" d="M 291.5,343.5 C 292.833,344.167 292.833,344.167 291.5,343.5 Z"/></g>
<g><path style="opacity:1" fill="#ff9605" d="M 302.5,344.5 C 302.631,345.239 302.464,345.906 302,346.5C 301.308,345.563 301.475,344.897 302.5,344.5 Z"/></g>
<g><path style="opacity:1" fill="#ff9605" d="M 192.5,345.5 C 193.525,345.897 193.692,346.563 193,347.5C 192.536,346.906 192.369,346.239 192.5,345.5 Z"/></g>
<g><path style="opacity:1" fill="#ff9708" d="M 203.5,347.5 C 202.475,347.103 202.308,346.437 203,345.5C 203.464,346.094 203.631,346.761 203.5,347.5 Z"/></g>
<g><path style="opacity:1" fill="#ff9401" d="M 203.5,347.5 C 204.338,347.842 204.672,348.508 204.5,349.5C 203.662,349.158 203.328,348.492 203.5,347.5 Z"/></g>
<g><path style="opacity:1" fill="#fe9400" d="M 300.5,347.5 C 301.833,348.167 301.833,348.167 300.5,347.5 Z"/></g>
<g><path style="opacity:1" fill="#fe9400" d="M 193.5,348.5 C 194.833,349.167 194.833,349.167 193.5,348.5 Z"/></g>
<g><path style="opacity:1" fill="#fe9400" d="M 204.5,349.5 C 205.338,349.842 205.672,350.508 205.5,351.5C 204.662,351.158 204.328,350.492 204.5,349.5 Z"/></g>
<g><path style="opacity:1" fill="#fe9c13" d="M 299.5,349.5 C 300.833,350.167 300.833,350.167 299.5,349.5 Z"/></g>
<g><path style="opacity:1" fill="#fe9f1a" d="M 194.5,350.5 C 195.833,351.167 195.833,351.167 194.5,350.5 Z"/></g>
<g><path style="opacity:1" fill="#ff9608" d="M 232.5,350.5 C 233.598,351.601 233.765,352.934 233,354.5C 232.51,353.207 232.343,351.873 232.5,350.5 Z"/></g>
<g><path style="opacity:1" fill="#ff980e" d="M 290.5,345.5 C 291.043,345.56 291.376,345.893 291.5,346.5C 288.903,351.791 286.403,357.124 284,362.5C 285.003,356.476 287.17,350.81 290.5,345.5 Z"/></g>
<g><path style="opacity:1" fill="#ff970a" d="M 205.5,351.5 C 207.607,354.057 208.941,357.057 209.5,360.5C 207.375,357.912 206.042,354.912 205.5,351.5 Z"/></g>
<g><path style="opacity:1" fill="#ff9a10" d="M 209.5,360.5 C 210.525,360.897 210.692,361.563 210,362.5C 209.536,361.906 209.369,361.239 209.5,360.5 Z"/></g>
<g><path style="opacity:1" fill="#fea427" d="M 210.5,363.5 C 211.833,364.167 211.833,364.167 210.5,363.5 Z"/></g>
</svg>
